<svg width="602" height="553" viewBox="0 0 602 553" fill="none" xmlns="http://www.w3.org/2000/svg">
<path d="M154 403V108" stroke="black" stroke-width="9" stroke-linecap="round"/>
<path d="M113.631 7.8047C115.038 3.16921 119.312 0 124.156 0H174.503C179.026 0 183.088 2.76829 184.741 6.97782L220.098 96.9778C222.933 104.194 217.613 112 209.86 112H96.835C89.4515 112 84.1645 104.87 86.3093 97.8047L113.631 7.8047Z" fill="#9575CD"/>
<path d="M99 98L152.5 98" stroke="black" stroke-width="3" stroke-linecap="round"/>
<path d="M160 98.0001L176.5 98" stroke="black" stroke-width="3" stroke-linecap="round"/>
<path d="M68 126L82.5 119.5" stroke="#FFC107" stroke-width="3" stroke-linecap="round"/>
<path d="M198 133C198.857 135.879 201.857 142.909 207 148" stroke="#FFC107" stroke-width="3" stroke-linecap="round"/>
<path d="M224 126C225.219 128.533 229.525 134.08 237 136" stroke="#FFC107" stroke-width="3" stroke-linecap="round"/>
<path d="M116 153.5L123.5 130.5" stroke="#FFC107" stroke-width="3" stroke-linecap="round"/>
<path d="M61.0138 355.679L61.0138 355.679L60.9818 355.573C60.6678 354.526 59.8126 353.731 58.7458 353.494C56.2982 352.95 53.9847 351.92 51.9423 350.466L49.9234 349.029C49.4509 348.692 49.5103 347.973 50.0315 347.718L51.4007 347.05C53.6795 345.938 56.0814 345.098 58.5567 344.548C59.7402 344.285 60.6891 343.403 61.0375 342.242L61.4948 340.717C62.0573 338.843 62.7618 337.014 63.6024 335.246L64.2154 333.957C64.7666 332.798 66.4244 332.822 66.9424 333.996L68.65 337.867L69.9394 342.165C70.302 343.374 71.2898 344.292 72.5219 344.566C74.9773 345.111 77.3724 345.9 79.6716 346.92L80.9892 347.505C81.7518 347.843 81.8344 348.893 81.1339 349.346L79.2263 350.581C77.105 351.954 74.7559 352.938 72.2892 353.486C71.2009 353.728 70.3282 354.539 70.0078 355.607C70.0078 355.607 70.0078 355.607 70.0078 355.607L69.9729 355.723C69.1365 358.511 67.8953 361.162 66.289 363.589L66.125 363.837C65.886 364.198 65.359 364.208 65.1075 363.855L64.8257 363.46C63.1371 361.093 61.8493 358.464 61.0138 355.679Z" stroke="#FFC107" stroke-width="5"/>
<path d="M493.786 44.2701L493.283 42.0054L493.786 44.2701C495.017 43.9965 496.005 43.0787 496.367 41.8706L497.04 39.6266C497.603 37.7518 498.307 35.9227 499.148 34.155L500.669 30.957C501.22 29.7979 502.878 29.8215 503.396 30.9959L505.945 36.7761L507.471 41.8613L509.866 41.1429L507.471 41.8613C507.835 43.0751 508.827 43.9973 510.064 44.2722L510.715 44.4167C513.208 44.9709 515.64 45.7718 517.975 46.8077L520.229 47.8076C521.319 48.2909 521.437 49.7904 520.436 50.4379L518.047 51.9846C515.548 53.6017 512.781 54.7603 509.876 55.4059C508.755 55.6551 507.856 56.4906 507.526 57.5905L507.526 57.5906L507.486 57.7254C507.486 57.7254 507.486 57.7254 507.486 57.7254C506.505 60.9944 505.05 64.1018 503.167 66.948L502.977 67.2354C502.546 67.8867 501.595 67.9034 501.142 67.2676L500.815 66.8096C498.833 64.0304 497.321 60.9441 496.34 57.6742L496.303 57.5507L493.908 58.269L496.303 57.5507C495.98 56.4754 495.101 55.6585 494.005 55.415C491.117 54.773 488.386 53.5578 485.975 51.8413L483.635 50.1752L482.185 52.2117L483.635 50.1752C482.842 49.6103 482.941 48.4024 483.817 47.9753L485.404 47.2008C488.073 45.8981 490.887 44.9145 493.786 44.2701Z" stroke="black" stroke-opacity="0.8" stroke-width="5"/>
<mask id="path-11-inside-1_24_167" fill="white">
<path d="M10.5108 394.831C10.7357 394.781 10.916 394.613 10.9822 394.393L11.244 393.52C11.7473 391.842 12.3777 390.206 13.1299 388.624C14.365 386.027 18.0796 386.08 19.2403 388.711L20.25 391L21.2504 394.335C21.3274 394.591 21.5368 394.786 21.7981 394.844C23.7612 395.28 25.6759 395.911 27.5141 396.726L28.5022 397.165C30.436 398.023 30.6452 400.684 28.8693 401.834L27.4385 402.76C25.6604 403.911 23.6913 404.735 21.6237 405.195C21.4701 405.229 21.347 405.343 21.3018 405.494L21.2756 405.581C20.5956 407.848 19.5864 410.003 18.2804 411.977L18.1574 412.163C17.2523 413.531 15.2567 413.566 14.3042 412.23L14.0928 411.934C12.707 409.991 11.6501 407.834 10.9644 405.548L10.9405 405.468C10.9 405.333 10.7899 405.231 10.6526 405.201C8.57204 404.738 6.6054 403.863 4.86919 402.627L3.35503 401.549C1.84216 400.472 2.03231 398.168 3.70134 397.354L4.72824 396.853C6.56967 395.954 8.51055 395.275 10.5108 394.831Z"/>
</mask>
<path d="M20.25 391L25.0391 389.563L24.95 389.266L24.8247 388.982L20.25 391ZM21.2756 405.581L16.4865 404.145L21.2756 405.581ZM27.5141 396.726L25.4865 401.297L27.5141 396.726ZM3.35503 401.549L0.455002 405.622L3.35503 401.549ZM19.2403 388.711L14.6656 390.729L19.2403 388.711ZM10.9405 405.468L6.15133 406.905L10.9405 405.468ZM21.3018 405.494L16.5127 404.057L21.3018 405.494ZM21.2504 394.335L26.0396 392.898L21.2504 394.335ZM10.9822 394.393L6.19309 392.956L10.9822 394.393ZM14.6656 390.729L15.6753 393.018L24.8247 388.982L23.815 386.693L14.6656 390.729ZM15.4609 392.437L16.4613 395.772L26.0396 392.898L25.0391 389.563L15.4609 392.437ZM25.4865 401.297L26.4746 401.735L30.5298 392.594L29.5417 392.156L25.4865 401.297ZM15.7714 395.829L16.0331 394.957L6.45486 392.083L6.19309 392.956L15.7714 395.829ZM5.89416 401.847L6.92106 401.346L2.53541 392.359L1.50851 392.86L5.89416 401.847ZM18.3747 409.327L18.1633 409.03L10.0223 414.837L10.2337 415.134L18.3747 409.327ZM15.7536 404.111L15.7296 404.031L6.15133 406.905L6.17532 406.985L15.7536 404.111ZM7.76922 398.554L6.25505 397.476L0.455002 405.622L1.96917 406.7L7.76922 398.554ZM16.5127 404.057L16.4865 404.145L26.0648 407.018L26.0909 406.931L16.5127 404.057ZM14.1106 409.218L13.9876 409.404L22.3273 414.922L22.4503 414.736L14.1106 409.218ZM26.1524 397.636L24.7216 398.562L30.1554 406.957L31.5862 406.031L26.1524 397.636ZM24.7216 398.562C23.4427 399.39 22.0263 399.983 20.539 400.314L22.7083 410.076C25.3564 409.487 27.8782 408.431 30.1554 406.957L24.7216 398.562ZM16.4865 404.145C15.947 405.943 15.1465 407.652 14.1106 409.218L22.4503 414.736C24.0263 412.354 25.2441 409.754 26.0648 407.018L16.4865 404.145ZM11.7373 400.32C10.3098 400.002 8.96044 399.402 7.76922 398.554L1.96917 406.7C4.25036 408.324 6.83431 409.474 9.56796 410.082L11.7373 400.32ZM18.1633 409.03C17.0959 407.534 16.2818 405.872 15.7536 404.111L6.17532 406.985C7.01853 409.796 8.31821 412.449 10.0223 414.837L18.1633 409.03ZM16.0331 394.957C16.4634 393.523 17.0023 392.123 17.6453 390.771L8.6145 386.477C7.75315 388.288 7.03118 390.162 6.45486 392.083L16.0331 394.957ZM20.7135 399.725C22.3527 400.089 23.9516 400.616 25.4865 401.297L29.5417 392.156C27.4003 391.206 25.1697 390.471 22.8828 389.963L20.7135 399.725ZM1.50851 392.86C-3.5688 395.338 -4.14724 402.345 0.455002 405.622L6.25505 397.476C7.83156 398.598 7.63342 400.998 5.89416 401.847L1.50851 392.86ZM10.2337 415.134C13.2233 419.325 19.4865 419.215 22.3273 414.922L13.9876 409.404C15.0181 407.846 17.2902 407.806 18.3747 409.327L10.2337 415.134ZM26.4746 401.735C24.777 400.982 24.5934 398.645 26.1524 397.636L31.5862 406.031C36.6971 402.723 36.0949 395.063 30.5298 392.594L26.4746 401.735ZM23.815 386.693C20.9275 380.147 11.6871 380.016 8.6145 386.477L17.6453 390.771C17.043 392.038 15.2316 392.012 14.6656 390.729L23.815 386.693ZM15.7296 404.031C15.169 402.163 13.6419 400.743 11.7373 400.32L9.56796 410.082C7.93798 409.719 6.63113 408.504 6.15133 406.905L15.7296 404.031ZM26.0909 406.931C25.6159 408.514 24.3221 409.717 22.7083 410.076L20.539 400.314C18.6182 400.741 17.0781 402.173 16.5127 404.057L26.0909 406.931ZM16.4613 395.772C17.0584 397.762 18.6849 399.274 20.7135 399.725L22.8828 389.963C24.3888 390.298 25.5963 391.42 26.0396 392.898L16.4613 395.772ZM6.92106 401.346C8.4096 400.62 9.97852 400.071 11.5954 399.712L9.4261 389.95C7.04257 390.48 4.72974 391.288 2.53541 392.359L6.92106 401.346ZM6.19309 392.956C6.6471 391.442 7.88372 390.293 9.4261 389.95L11.5954 399.712C13.5876 399.269 15.1849 397.784 15.7714 395.829L6.19309 392.956Z" fill="black" fill-opacity="0.8" mask="url(#path-11-inside-1_24_167)"/>
<path d="M578.69 425.049L578.148 422.609L578.69 425.049C579.812 424.8 580.712 423.963 581.042 422.862C581.042 422.862 581.042 422.862 581.042 422.862L581.32 421.937C581.817 420.279 582.44 418.662 583.183 417.099C583.575 416.276 584.751 416.293 585.119 417.127L586.127 419.412L587.144 422.801L589.538 422.082L587.144 422.801C587.485 423.94 588.416 424.805 589.577 425.063C591.497 425.49 593.37 426.106 595.168 426.904L596.216 427.369C596.295 427.404 596.331 427.443 596.353 427.475C596.38 427.515 596.402 427.571 596.407 427.64C596.413 427.708 596.4 427.767 596.379 427.811C596.363 427.846 596.333 427.89 596.26 427.937L594.743 428.919C593.107 429.978 591.295 430.737 589.392 431.16L589.934 433.6L589.392 431.16C588.345 431.393 587.506 432.173 587.198 433.2L587.17 433.292L587.17 433.292C586.52 435.462 585.554 437.525 584.303 439.414L586.388 440.793L584.303 439.414L584.189 439.586L583.982 439.296C582.672 437.459 581.672 435.419 581.024 433.257L580.998 433.172C580.695 432.162 579.87 431.395 578.841 431.166C576.96 430.748 575.183 429.958 573.614 428.84L572.008 427.697C571.991 427.684 571.983 427.676 571.981 427.673C571.978 427.669 571.976 427.666 571.975 427.663C571.971 427.655 571.966 427.637 571.968 427.61C571.97 427.584 571.978 427.566 571.983 427.559C571.985 427.556 571.987 427.553 571.991 427.551C571.994 427.548 572.002 427.541 572.022 427.531L573.111 427C574.888 426.133 576.76 425.478 578.69 425.049Z" stroke="black" stroke-opacity="0.8" stroke-width="5"/>
<path d="M506.5 137C478.5 127.4 434.5 130.333 416 133C425.667 137.333 448.1 147.9 460.5 155.5C472.9 163.1 477 169.667 477.5 172C488 179 491 183 498 196C503.629 206.454 504.333 223.167 503.5 230.5C504 256 497 258.5 486 270.5C476.586 280.769 456.333 287.333 447 289C443.833 288.667 435.9 288 429.5 288C423.1 288 407.5 278.667 400.5 274C383.3 276 377.5 304 375 316.5V361.5L371.5 363L310 382L314.5 402C319 415.167 328 441.6 328 442C332 455.6 335 478 334.5 482L323 490.5L335.5 516.5H523C546.2 516.5 551.5 509 551.5 494V336.5V233C551.5 195 551.5 187.5 549.5 177.5C542 154 541.5 149 506.5 137Z" fill="#FFC107" stroke="#FFC107" stroke-width="4" stroke-linecap="round"/>
<path d="M277.5 516L196.5 513.5L201.5 506L206.5 496L217 476.5L239.5 442L244.5 460.5C246 464.333 250.8 475.9 258 491.5C267 511 264 507 270 509.5C284.4 504.907 291.667 506.586 293.5 508L277.5 516Z" fill="#FFC107" stroke="#FFC107" stroke-width="4"/>
<path d="M286.5 199.5C286.833 197.833 287.5 193.6 287.5 190C287.5 188 277 180.5 272 178C268 176 260 172.167 256.5 170.5C252.5 168 252 166 258.5 160C262.5 156.167 272.9 147 282.5 141C294.5 133.5 319 123.5 338.5 123C340.9 125.8 337.5 133.833 335.5 137.5C335.833 145.833 338.9 163.1 348.5 165.5C360.5 168.5 372.5 167.5 376.5 150.5C380.9 142.9 383.333 129 384 123C390 124 405.7 127.5 420.5 133.5C439 141 463 158 473.5 168C476 171.5 476.5 173.5 471 173.5C465.5 173.5 445.5 177 430.5 192C418.5 204 414.167 210.333 413.5 212C414.5 214.833 414.6 221.5 407 225.5C397.5 230.5 387 229 383.5 229.5C380.197 229.972 356.403 237.571 355.003 239.684C355.114 240.002 355.119 240.119 355 240C354.916 239.916 354.92 239.81 355.003 239.684C353.995 236.798 344.253 217.357 339 207L286.5 199.5Z" fill="#9575CD" stroke="#9575CD" stroke-width="3" stroke-linecap="round"/>
<path d="M341 126.5C338.167 131.333 333.8 143.3 339 152.5C345.5 164 352.5 167 356.5 167C360.5 167 369.5 165.5 376.5 150" stroke="#FFC107" stroke-width="8" stroke-linecap="round"/>
<path d="M287.999 172C283.832 169 277.499 163.5 270.999 161C264.74 158.593 263.501 158.5 261.5 158" stroke="#FFC107" stroke-width="3" stroke-linecap="round"/>
<path d="M467 162.5C458.166 163.333 437.706 168.794 424.5 182C415.5 191 411.5 197.5 411.5 197.5" stroke="#FFC107" stroke-width="3" stroke-linecap="round"/>
<circle cx="351.5" cy="186.5" r="3.5" fill="#FFC107"/>
<circle cx="354.5" cy="217.5" r="3.5" fill="#FFC107"/>
<path d="M405.5 193C409.5 199.833 415.5 211.5 414 217.5C412.648 222.908 412.514 227.276 384.608 230.669C379.566 231.282 374.499 232.05 369.703 233.723C359.54 237.268 351.627 241.873 350 243.5" stroke="black" stroke-width="3" stroke-linecap="round"/>
<path d="M288.5 178.5L286.5 201.5" stroke="black" stroke-width="3" stroke-linecap="round"/>
<path d="M326 182.5H311C310.448 182.5 310 182.052 310 181.5V166C310 165.448 310.448 165 311 165H326C326.552 165 327 165.448 327 166V181.5C327 182.052 326.552 182.5 326 182.5Z" stroke="white" stroke-width="3" stroke-linecap="round"/>
<rect x="311" y="166" width="15" height="5" fill="white"/>
<path d="M378 110.5C380.8 116.9 381.333 124 381.5 128.5C381 129.333 380 130.6 380 129C380.4 121.8 377.5 112.333 376 108.5L370 93C371.5 92.5 373.1 91.1 373.5 87.5C373.9 83.9 371.667 81 370.5 80C368 78 364.5 79.5 363.5 80.5C362.833 79 360.1 75.1 356.5 73.5C352 71.5 342.5 70 336 77C329.5 84 327 87.5 327 99C327 110.5 331.5 114.5 334.5 118.5C337.5 122.5 349.5 128.5 359.5 121.5C367.5 115.9 367.833 117.833 367 119.5C365.667 121 361.3 124.5 354.5 126.5C346 129 338 125.5 330.5 117.5C323 109.5 324 95.5 325 92C325.8 89.2 325.333 86.5 325 85.5C323 79.6667 318.7 67.2 317.5 64C316 60 318 61 321.5 64.5C324.3 67.3 324.667 64 324.5 62C324.5 61.6667 324.4 60.3 324 57.5C322.8 50.3 324.833 52.1666 326 54C326.167 54.3333 327.2 55.8 330 59C334 63.4 335 60.8333 335 59V49C335 42.6 336.667 44.6667 337.5 46.5C337.833 47.1667 339.1 49.2 341.5 52C345.1 56.8 346 53.3333 346 51C346 50.3333 346.2 48 347 44C349.8 34.4 350.5 38 350.5 41C350.667 44.6666 351.5 53.2 353.5 58C356 64 357.5 59.5 362 54C366.5 48.5 367 50 366.5 56C366.1 60.8 367.667 67.3333 368.5 70C369.5 73.8333 372.7 83.5 377.5 91.5C383.5 101.5 389.5 107.5 388 108C386.8 108.4 380.833 109.833 378 110.5Z" fill="black" stroke="black" stroke-width="3" stroke-linecap="round"/>
<path d="M376.5 150C379 143.333 383.9 128.5 383.5 122.5" stroke="#FFC107" stroke-width="8" stroke-linecap="round"/>
<path d="M437 410C437.523 411.333 437.627 413.9 437 415.5" stroke="black" stroke-width="3" stroke-linecap="round"/>
<path d="M431 287L433.5 361" stroke="black" stroke-width="3" stroke-linecap="round"/>
<path d="M359 255C364.167 253.833 377.6 254 390 264C405.5 276.5 413 282 431 286.5C446.588 289.251 465.54 285.013 484 270M477.5 173.5C479.634 175.052 483.382 178.049 487.011 181.545C492.089 186.438 495.528 192.73 497.774 199.414C500.995 208.995 501.722 215.393 502 221.5C503 243.5 495 259.95 489 265.5C487.339 267.036 485.672 268.641 484 270M484 270C485.5 268.5 492.5 264.6 512.5 265" stroke="black" stroke-width="3" stroke-linecap="round"/>
<path d="M537.5 300C538.333 312 539.1 339.7 535.5 354.5" stroke="white" stroke-width="3" stroke-linecap="round"/>
<path d="M534 285.5C534.167 271.333 533.889 241.5 533.5 234.5C533 225.5 531.025 203.5 529 190C527.5 180 527 163.5 504.5 152" stroke="white" stroke-width="3" stroke-linecap="round"/>
<path d="M320 393H355" stroke="black" stroke-width="3" stroke-linecap="round"/>
<path d="M378 517.5C376 488 374 429.8 374 427C373.334 400.5 372.944 347.153 373 345C373.5 326 373 313 380 288C381.54 282.5 387.6 273.3 400 272.5" stroke="black" stroke-width="3" stroke-linecap="round"/>
<path d="M437.5 419.5C437.5 420.5 438.5 488 435.5 517.5" stroke="black" stroke-width="3" stroke-linecap="round"/>
<path d="M391.5 363C390.833 350.167 389.6 323 390 317C390.5 309.5 392.5 296 402.5 298.5C408.5 301 408 303.5 408.5 320.5" stroke="white" stroke-width="3" stroke-linecap="round"/>
<path d="M328.5 351.5C323 354.833 308.2 360.9 293 358.5" stroke="#FFC107" stroke-width="3" stroke-linecap="round"/>
<path d="M342.5 345.5C348.667 343.667 362.7 338.6 369.5 333" stroke="#FFC107" stroke-width="3" stroke-linecap="round"/>
<path d="M175.5 414.5C181 404.667 192.6 384 195 380C198 375 211.628 346.453 214 342.5C217 337.5 223 328.5 234 321C239.167 317.167 253.5 308.6 269.5 305C285.5 301.4 310.167 301.5 320.5 302C326.833 302.333 341.7 301.8 350.5 297" stroke="#FFC107" stroke-width="3" stroke-linecap="round"/>
<path d="M159.5 502.5C162.167 499.333 169 490.2 173 479C175.833 471.833 183 455.7 189 448.5C196 438.5 205 424 212.5 409.5C220 395 226.5 385 231.5 378C236.5 371 249 355 255 349C261 343 272 328 291 325C310 322 356.5 309.5 361 306.5" stroke="#FFC107" stroke-width="3" stroke-linecap="round"/>
<path d="M183.5 499L201.5 461L220.5 425.5C224.833 418.333 234.5 402.5 240 395.5C245.747 388.186 250 383 262 371" stroke="#FFC107" stroke-width="3" stroke-linecap="round"/>
<path d="M143 476.5C144 472.167 147.7 461.4 154.5 453C160.5 443.8 168 429.833 171 424" stroke="#FFC107" stroke-width="3" stroke-linecap="round"/>
<path d="M112.5 495.5C119.5 494.667 135.5 493.5 143.5 495.5" stroke="black" stroke-width="3" stroke-linecap="round"/>
<circle cx="148" cy="495" r="2" fill="black"/>
<path d="M304.5 422.5C304.1 421.7 293.333 395.167 288 382" stroke="#FFC107" stroke-width="3" stroke-linecap="round"/>
<path d="M307 433.5C310 438.667 316.7 452.1 319.5 464.5" stroke="#FFC107" stroke-width="3" stroke-linecap="round"/>
<path d="M292 473.5L274.5 419C273.167 413.5 270.7 401.9 271.5 399.5" stroke="#FFC107" stroke-width="3" stroke-linecap="round"/>
<path d="M276 481L259 441.5C257 435.833 253.1 423.5 253.5 419.5" stroke="#FFC107" stroke-width="3" stroke-linecap="round"/>
<path d="M276.5 488.5C283.5 488.5 299.2 483.2 314 474M318 470.5L321 469" stroke="black" stroke-width="3" stroke-linecap="round"/>
<path d="M298 288C272 283 243 276 216 302.5C194.5 322.5 181.2 341.5 176 359.5C171.219 374.32 164.154 392.796 144.751 416.24C142.945 418.422 141.228 420.712 139.888 423.207C132.074 437.757 135.125 443.178 125.5 466.5C123.667 471.5 116.6 484.6 103 497C96.8946 503.105 93.5569 510.474 92.3356 514.328C92.109 515.043 92.3367 515.86 93.0222 516.165C96.912 517.894 102.41 512.083 118 513C127.331 514.493 146.526 514.927 161.815 514.386C170.924 514.063 180.455 512.535 189.092 515.448V515.448C189.989 515.751 190.958 515.603 191.624 514.93C194.923 511.6 201.038 503.988 206 493C211.197 481.493 228.244 455.93 240.365 438M278.5 379.5C277 394 257.5 411 250.5 423C248.182 426.477 244.57 431.779 240.365 438M278.5 379.5C281 370.5 282.5 352 282.5 350M278.5 379.5C283 380.667 295.3 382.5 308.5 380.5M240.365 438C242.576 448.167 248.6 471.2 255 482C262.57 494.774 261.186 498.594 266.945 507.016C267.575 507.937 268.674 508.402 269.769 508.186C284.143 505.352 322.977 491.878 333.15 481.447C333.72 480.862 333.947 480.05 333.843 479.239C332.514 468.926 328.753 446.842 323 431.5C317 415.5 312.167 399.167 310.5 393C309.833 390.667 308.5 385.7 308.5 380.5M308.5 380.5C327 376 365.3 361.9 372.5 361.5" stroke="black" stroke-width="3" stroke-linecap="round"/>
<path d="M251.5 168C237.5 175.5 211.5 215.1 207.5 241.5C205.5 260 209.3 282.8 222.5 296" stroke="black" stroke-width="3" stroke-linecap="round"/>
<path d="M162.5 541L162 514.5C153.6 514.9 133.833 514.333 125 514V519C108 518.5 104 523.1 102 525.5C99.5 528.5 97.1667 541 97 546.5C97 550.9 99.5 551.5 101.5 551.5H149.5C162.7 551.5 162.5 549.5 162.5 541Z" fill="black" stroke="black" stroke-width="3" stroke-linecap="round"/>
<path d="M103 524.5L116 534.5C117.667 535.833 120.7 537.1 119.5 531.5C118.799 528.228 118.633 526.275 118.682 525.185C118.717 524.415 119.385 524.3 119.993 524.772C124.755 528.475 133.01 534.882 134.5 536" stroke="white" stroke-width="3" stroke-linecap="round"/>
<path d="M290.5 508L288.5 504C296.1 500.4 313.667 493.167 321.5 490C325.5 498.333 333.6 515.2 334 516C336 520 335 522 333.5 523L286 547C280.4 550.2 278.5 548 277.5 547C269.5 534.5 270 527 272 522.5C273.976 518.053 284.667 510.833 290.5 508Z" fill="black" stroke="black" stroke-width="3" stroke-linecap="round"/>
<path d="M276.5 544C278.251 543.562 281.995 542.128 285.853 538.288C286.976 537.17 288.319 536.284 289.881 536.012C295.378 535.055 306.467 533.488 309 528C310.981 524.886 314.916 523.592 318.11 523.161C320.334 522.86 322.606 522.651 324.64 521.702C327.573 520.334 331.083 518.268 332.5 516" stroke="white" stroke-width="3" stroke-linecap="round"/>
<path d="M272.5 523L288.5 526.5C290.667 527.333 294.353 527.694 291 523C288.5 519.5 288.333 519.333 287.5 518C286.667 516.666 286 515 293 517C299.8 518.6 304.167 519.667 305.5 520" stroke="white" stroke-width="3" stroke-linecap="round"/>
<path d="M214.514 205.621C213.056 201.693 215.972 197.517 220.163 197.533L336.868 197.984C339.356 197.994 341.58 199.538 342.459 201.866L369.434 273.373C370.915 277.3 368.011 281.495 363.814 281.491L246.795 281.363C244.289 281.36 242.049 279.8 241.176 277.451L214.514 205.621Z" fill="#FFC107"/>
<path d="M248 214.519L261 214.519" stroke="black" stroke-width="3" stroke-linecap="round"/>
<path d="M273 213.448C285.5 211.948 315.8 211.348 327 212.948" stroke="black" stroke-width="3" stroke-linecap="round"/>
</svg>
