<svg width="905" height="471" viewBox="0 0 905 471" fill="none" xmlns="http://www.w3.org/2000/svg">
<path d="M685.014 387.679L685.014 387.679L684.982 387.573C684.668 386.526 683.813 385.731 682.746 385.494C680.298 384.95 677.985 383.92 675.942 382.466L673.923 381.029C673.451 380.692 673.51 379.973 674.032 379.718L675.401 379.05C677.68 377.938 680.081 377.098 682.557 376.548C683.74 376.285 684.689 375.403 685.038 374.242L685.495 372.717C686.057 370.843 686.762 369.014 687.602 367.246L688.215 365.957C688.767 364.798 690.424 364.822 690.942 365.996L692.65 369.867L693.939 374.165C694.302 375.374 695.29 376.292 696.522 376.566C698.977 377.111 701.372 377.9 703.672 378.92L704.989 379.505C705.752 379.843 705.834 380.893 705.134 381.346L703.226 382.581C701.105 383.954 698.756 384.938 696.289 385.486C695.201 385.728 694.328 386.539 694.008 387.607C694.008 387.607 694.008 387.607 694.008 387.607L693.973 387.723C693.136 390.511 691.895 393.162 690.289 395.589L690.125 395.837C689.886 396.198 689.359 396.208 689.108 395.855L688.826 395.46C687.137 393.093 685.849 390.464 685.014 387.679Z" stroke="#FFC107" stroke-width="5"/>
<path d="M16.7862 442.27L16.2829 440.005L16.7862 442.27C18.0175 441.996 19.0047 441.079 19.3671 439.871L20.0403 437.627C20.6027 435.752 21.3073 433.923 22.1479 432.155L23.6687 428.957C24.2199 427.798 25.8777 427.822 26.3958 428.996L28.9455 434.776L30.471 439.861L32.8656 439.143L30.471 439.861C30.8352 441.075 31.8271 441.997 33.0642 442.272L33.7145 442.417C36.2081 442.971 38.6404 443.772 40.9753 444.808L43.2292 445.808C44.3186 446.291 44.4365 447.79 43.436 448.438L41.0466 449.985C38.5481 451.602 35.7813 452.76 32.8761 453.406C31.7551 453.655 30.8564 454.491 30.5264 455.591L30.5264 455.591L30.4859 455.725C30.4859 455.725 30.4859 455.725 30.4859 455.725C29.5052 458.994 28.05 462.102 26.1667 464.948L25.9765 465.235C25.5456 465.887 24.5953 465.903 24.1417 465.268L23.8151 464.81C21.8326 462.03 20.3206 458.944 19.3396 455.674L19.3026 455.551L16.908 456.269L19.3025 455.551C18.98 454.475 18.1013 453.659 17.0054 453.415C14.1166 452.773 11.3859 451.558 8.97513 449.841L6.63505 448.175L5.18504 450.212L6.63505 448.175C5.84168 447.61 5.94139 446.402 6.81666 445.975L8.40369 445.201C11.0731 443.898 13.8867 442.914 16.7862 442.27Z" stroke="black" stroke-opacity="0.8" stroke-width="5"/>
<path d="M870.786 123.27L870.283 121.005L870.786 123.27C872.017 122.996 873.005 122.079 873.367 120.871L874.04 118.627C874.603 116.752 875.307 114.923 876.148 113.155L877.669 109.957C878.22 108.798 879.878 108.822 880.396 109.996L882.945 115.776L884.471 120.861L886.866 120.143L884.471 120.861C884.835 122.075 885.827 122.997 887.064 123.272L887.715 123.417C890.208 123.971 892.64 124.772 894.975 125.808L897.229 126.808C898.319 127.291 898.437 128.79 897.436 129.438L895.047 130.985C892.548 132.602 889.781 133.76 886.876 134.406C885.755 134.655 884.856 135.491 884.526 136.591L884.526 136.591L884.486 136.725C884.486 136.725 884.486 136.725 884.486 136.725C883.505 139.994 882.05 143.102 880.167 145.948L879.977 146.235C879.546 146.887 878.595 146.903 878.142 146.268L877.815 145.81C875.833 143.03 874.321 139.944 873.34 136.674L873.303 136.551L870.908 137.269L873.303 136.551C872.98 135.475 872.101 134.659 871.005 134.415C868.117 133.773 865.386 132.558 862.975 130.841L860.635 129.175L859.185 131.212L860.635 129.175C859.842 128.61 859.941 127.402 860.817 126.975L862.404 126.201C865.073 124.898 867.887 123.914 870.786 123.27Z" stroke="black" stroke-opacity="0.8" stroke-width="5"/>
<path d="M290.786 22.2701L290.283 20.0054L290.786 22.2701C292.017 21.9965 293.005 21.0787 293.367 19.8706L294.04 17.6266C294.603 15.7518 295.307 13.9227 296.148 12.155L297.669 8.95704C298.22 7.79792 299.878 7.82151 300.396 8.99586L302.945 14.7761L304.471 19.8613L306.866 19.1429L304.471 19.8613C304.835 21.0751 305.827 21.9973 307.064 22.2722L307.715 22.4167C310.208 22.9709 312.64 23.7718 314.975 24.8077L317.229 25.8076C318.319 26.2909 318.437 27.7904 317.436 28.4379L315.047 29.9846C312.548 31.6017 309.781 32.7603 306.876 33.4059C305.755 33.6551 304.856 34.4906 304.526 35.5905L304.526 35.5906L304.486 35.7254C304.486 35.7254 304.486 35.7254 304.486 35.7254C303.505 38.9944 302.05 42.1018 300.167 44.948L299.977 45.2354C299.546 45.8867 298.595 45.9034 298.142 45.2676L297.815 44.8096C295.833 42.0304 294.321 38.9441 293.34 35.6742L293.303 35.5507L290.908 36.269L293.303 35.5507C292.98 34.4754 292.101 33.6585 291.005 33.415C288.117 32.773 285.386 31.5578 282.975 29.8413L280.635 28.1752L279.185 30.2117L280.635 28.1752C279.842 27.6103 279.941 26.4024 280.817 25.9753L282.404 25.2008C285.073 23.8981 287.887 22.9145 290.786 22.2701Z" stroke="#FFC107" stroke-width="5"/>
</svg>
