<svg width="1118" height="607" viewBox="0 0 1118 607" fill="none" xmlns="http://www.w3.org/2000/svg">
<path d="M1083.79 578.27L1083.28 576.005L1083.79 578.27C1085.02 577.996 1086 577.079 1086.37 575.871L1087.04 573.627C1087.6 571.752 1088.31 569.923 1089.15 568.155L1090.67 564.957C1091.22 563.798 1092.88 563.822 1093.4 564.996L1095.95 570.776L1097.47 575.861L1099.87 575.143L1097.47 575.861C1097.84 577.075 1098.83 577.997 1100.06 578.272L1100.71 578.417C1103.21 578.971 1105.64 579.772 1107.98 580.808L1110.23 581.808C1111.32 582.291 1111.44 583.79 1110.44 584.438L1108.05 585.985C1105.55 587.602 1102.78 588.76 1099.88 589.406C1098.76 589.655 1097.86 590.491 1097.53 591.591L1097.53 591.591L1097.49 591.725C1097.49 591.725 1097.49 591.725 1097.49 591.725C1096.51 594.994 1095.05 598.102 1093.17 600.948L1092.98 601.235C1092.55 601.887 1091.6 601.903 1091.14 601.268L1090.82 600.81C1088.83 598.03 1087.32 594.944 1086.34 591.674L1086.3 591.551L1083.91 592.269L1086.3 591.551C1085.98 590.475 1085.1 589.659 1084.01 589.415C1081.12 588.773 1078.39 587.558 1075.98 585.841L1073.64 584.175L1072.19 586.212L1073.64 584.175C1072.84 583.61 1072.94 582.402 1073.82 581.975L1075.4 581.201C1078.07 579.898 1080.89 578.914 1083.79 578.27Z" stroke="black" stroke-opacity="0.6" stroke-width="5"/>
<path d="M17.0138 30.6792L17.0138 30.6792L16.9818 30.5726C16.6678 29.5259 15.8126 28.7307 14.7458 28.4936C12.2982 27.9497 9.98472 26.9202 7.94227 25.466L5.92338 24.0285C5.45091 23.6921 5.5103 22.9728 6.03153 22.7184L7.40073 22.0502C9.67952 20.9382 12.0814 20.0985 14.5567 19.5484C15.7402 19.2854 16.6891 18.4031 17.0375 17.2418L17.4948 15.7175C18.0573 13.8427 18.7618 12.0136 19.6024 10.2459L20.2154 8.95705C20.7666 7.79792 22.4244 7.82151 22.9424 8.99586L24.65 12.867L25.9394 17.1648C26.302 18.3737 27.2898 19.2921 28.5219 19.5658C30.9773 20.1115 33.3724 20.9002 35.6716 21.9202L36.9892 22.5047C37.7518 22.8431 37.8344 23.8928 37.1339 24.3462L35.2263 25.581C33.105 26.954 30.7559 27.9377 28.2892 28.4858C27.2009 28.7277 26.3282 29.539 26.0078 30.607C26.0078 30.607 26.0078 30.607 26.0078 30.607L25.9729 30.7233C25.1365 33.5115 23.8953 36.1617 22.289 38.5894L22.125 38.8373C21.886 39.1985 21.359 39.2077 21.1075 38.8551L20.8257 38.46C19.1371 36.0929 17.8493 33.4642 17.0138 30.6792Z" stroke="#FFC107" stroke-opacity="0.8" stroke-width="5"/>
<path d="M391.072 536.136C392.309 535.861 393.301 534.939 393.665 533.725L394.677 530.354C395.239 528.479 395.944 526.65 396.784 524.882L399.602 518.957C400.153 517.798 401.811 517.822 402.329 518.996L406.082 527.503L407.948 533.725C408.312 534.939 409.304 535.861 410.541 536.136L412.215 536.508C414.708 537.062 417.14 537.863 419.475 538.899L424.229 541.008C425.319 541.491 425.437 542.99 424.436 543.638L420.361 546.275C417.324 548.241 413.961 549.65 410.429 550.435C409.261 550.694 408.325 551.564 407.981 552.71L407.776 553.394C406.693 557.003 405.087 560.434 403.008 563.576L402.22 564.766C401.64 565.644 400.359 565.666 399.748 564.809L399.086 563.88C396.683 560.513 394.851 556.773 393.662 552.81L393.618 552.662C393.283 551.546 392.371 550.698 391.234 550.445C387.714 549.663 384.388 548.183 381.451 546.092L377.931 543.586C377.004 542.926 377.121 541.515 378.143 541.016L381.604 539.327C384.322 538.001 387.186 537 390.137 536.344L391.072 536.136Z" stroke="#FFC107" stroke-opacity="0.8" stroke-width="5"/>
<path d="M814.786 151.27L814.283 149.005L814.786 151.27C816.017 150.996 817.005 150.079 817.367 148.871L818.04 146.627C818.603 144.752 819.307 142.923 820.148 141.155L821.669 137.957C822.22 136.798 823.878 136.822 824.396 137.996L826.945 143.776L828.471 148.861L830.866 148.143L828.471 148.861C828.835 150.075 829.827 150.997 831.064 151.272L831.715 151.417C834.208 151.971 836.64 152.772 838.975 153.808L841.229 154.808C842.319 155.291 842.437 156.79 841.436 157.438L839.047 158.985C836.548 160.602 833.781 161.76 830.876 162.406C829.755 162.655 828.856 163.491 828.526 164.591L828.526 164.591L828.486 164.725C828.486 164.725 828.486 164.725 828.486 164.725C827.505 167.994 826.05 171.102 824.167 173.948L823.977 174.235C823.546 174.887 822.595 174.903 822.142 174.268L821.815 173.81C819.833 171.03 818.321 167.944 817.34 164.674L817.303 164.551L814.908 165.269L817.303 164.551C816.98 163.475 816.101 162.659 815.005 162.415C812.117 161.773 809.386 160.558 806.975 158.841L804.635 157.175L803.185 159.212L804.635 157.175C803.842 156.61 803.941 155.402 804.817 154.975L806.404 154.201C809.073 152.898 811.887 151.914 814.786 151.27Z" stroke="black" stroke-opacity="0.6" stroke-width="5"/>
</svg>
