<svg width="22" height="27" viewBox="0 0 22 27" fill="none" xmlns="http://www.w3.org/2000/svg">
<circle cx="11" cy="11" r="4" stroke="black" stroke-width="2"/>
<path d="M21 11C21 13.6875 19.6787 16.0862 17.6064 18.576C16.5737 19.8167 15.3818 21.0486 14.1162 22.3318C13.9297 22.5209 13.7415 22.7111 13.5522 22.9026C12.7232 23.7408 11.8713 24.6022 11.0346 25.4908C10.0867 24.3994 9.08294 23.3525 8.10131 22.3385C7.98732 22.2207 7.87369 22.1035 7.76048 21.9867C6.6309 20.8211 5.54372 19.6993 4.57189 18.565C2.42217 16.056 1 13.6654 1 11C1 5.47715 5.47715 1 11 1C16.5228 1 21 5.47715 21 11Z" stroke="black" stroke-width="2"/>
</svg>
